<svg xmlns="http://www.w3.org/2000/svg" viewBox="0 0 800 600" width="800" height="600"><defs><linearGradient id="rbu13" x1="0" y1="0" x2="0" y2="1"><stop offset="0" stop-color="#FFF4E4"/><stop offset="1" stop-color="#F7D9B5"/></linearGradient></defs><rect width="800" height="600" fill="url(#rbu13)"/><rect y="470" width="800" height="130" fill="#B98552" opacity=".28"/><g transform="translate(31 242) scale(0.46)"><ellipse cx="400" cy="512" rx="250" ry="24" fill="#000" opacity=".16"/><rect x="210" y="452" width="380" height="54" rx="27" fill="#D9974A"/><rect x="230" y="462" width="340" height="12" rx="6" fill="#fff" opacity=".18"/><rect x="195" y="400" width="410" height="56" rx="28" fill="#4E2A1A"/><rect x="215" y="410" width="370" height="10" rx="5" fill="#fff" opacity=".10"/><path d="M205 410 H595 L562 450 L522 414 L474 462 L432 414 L300 414 L262 456 L226 414 Z" fill="#F7B92C"/><rect x="195" y="348" width="410" height="56" rx="28" fill="#4E2A1A"/><rect x="215" y="358" width="370" height="10" rx="5" fill="#fff" opacity=".10"/><path d="M205 358 H595 L560 394 L520 362 L470 404 L430 362 H205 Z" fill="#F7B92C"/><rect x="222" y="334" width="356" height="14" rx="7" fill="#D9B0DD"/><path d="M190 344 q26 -36 52 0 t52 0 t52 0 t52 0 t52 0 t52 0 t52 0 t52 0 v18 H190 Z" fill="#5DB04A"/><path d="M200 352 q26 -26 52 0 t52 0 t52 0 t52 0 t52 0 t52 0 t52 0 v10 H200Z" fill="#7BCB63"/><path d="M205 332 C205 196 595 196 595 332 Z" fill="#E7A34F"/><path d="M240 286 C270 226 360 216 430 226" stroke="#fff" stroke-opacity=".28" stroke-width="12" fill="none" stroke-linecap="round"/><ellipse cx="313" cy="291" rx="10" ry="4.5" fill="#FFF3D9" transform="rotate(79 313 291)"/><ellipse cx="281" cy="290" rx="10" ry="4.5" fill="#FFF3D9" transform="rotate(103 281 290)"/><ellipse cx="298" cy="243" rx="10" ry="4.5" fill="#FFF3D9" transform="rotate(172 298 243)"/><ellipse cx="394" cy="272" rx="10" ry="4.5" fill="#FFF3D9" transform="rotate(129 394 272)"/><ellipse cx="346" cy="245" rx="10" ry="4.5" fill="#FFF3D9" transform="rotate(95 346 245)"/><ellipse cx="294" cy="276" rx="10" ry="4.5" fill="#FFF3D9" transform="rotate(28 294 276)"/><ellipse cx="260" cy="270" rx="10" ry="4.5" fill="#FFF3D9" transform="rotate(32 260 270)"/><ellipse cx="405" cy="236" rx="10" ry="4.5" fill="#FFF3D9" transform="rotate(123 405 236)"/><ellipse cx="291" cy="281" rx="10" ry="4.5" fill="#FFF3D9" transform="rotate(119 291 281)"/><ellipse cx="488" cy="234" rx="10" ry="4.5" fill="#FFF3D9" transform="rotate(96 488 234)"/><ellipse cx="379" cy="293" rx="10" ry="4.5" fill="#FFF3D9" transform="rotate(51 379 293)"/><ellipse cx="371" cy="295" rx="10" ry="4.5" fill="#FFF3D9" transform="rotate(41 371 295)"/><ellipse cx="485" cy="257" rx="10" ry="4.5" fill="#FFF3D9" transform="rotate(81 485 257)"/><ellipse cx="406" cy="282" rx="10" ry="4.5" fill="#FFF3D9" transform="rotate(126 406 282)"/></g><g transform="translate(401 242) scale(0.46)"><ellipse cx="400" cy="525" rx="220" ry="22" fill="#000" opacity=".16"/><rect x="259" y="122" width="26" height="278" rx="6" fill="#F7D26A" transform="rotate(-11 272 380)"/><rect x="271" y="99" width="26" height="301" rx="6" fill="#F3C24A" transform="rotate(-10 284 380)"/><rect x="275" y="158" width="26" height="242" rx="6" fill="#F7D26A" transform="rotate(-2 288 380)"/><rect x="287" y="153" width="26" height="247" rx="6" fill="#F7D26A" transform="rotate(-7 300 380)"/><rect x="300" y="114" width="26" height="286" rx="6" fill="#F3C24A" transform="rotate(-6 313 380)"/><rect x="302" y="127" width="26" height="273" rx="6" fill="#F3C24A" transform="rotate(-8 315 380)"/><rect x="314" y="126" width="26" height="274" rx="6" fill="#F3C24A" transform="rotate(-8 327 380)"/><rect x="323" y="123" width="26" height="277" rx="6" fill="#F7D26A" transform="rotate(6 336 380)"/><rect x="333" y="149" width="26" height="251" rx="6" fill="#F7D26A" transform="rotate(13 346 380)"/><rect x="342" y="111" width="26" height="289" rx="6" fill="#F3C24A" transform="rotate(2 355 380)"/><rect x="348" y="129" width="26" height="271" rx="6" fill="#EDB53B" transform="rotate(1 361 380)"/><rect x="356" y="90" width="26" height="310" rx="6" fill="#EDB53B" transform="rotate(12 369 380)"/><rect x="364" y="123" width="26" height="277" rx="6" fill="#F7D26A" transform="rotate(4 377 380)"/><rect x="377" y="95" width="26" height="305" rx="6" fill="#EDB53B" transform="rotate(-8 390 380)"/><rect x="388" y="84" width="26" height="316" rx="6" fill="#EDB53B" transform="rotate(-5 401 380)"/><rect x="398" y="140" width="26" height="260" rx="6" fill="#EDB53B" transform="rotate(-7 411 380)"/><rect x="404" y="155" width="26" height="245" rx="6" fill="#F3C24A" transform="rotate(-12 417 380)"/><rect x="416" y="80" width="26" height="320" rx="6" fill="#F7D26A" transform="rotate(-6 429 380)"/><rect x="426" y="100" width="26" height="300" rx="6" fill="#EDB53B" transform="rotate(8 439 380)"/><rect x="429" y="135" width="26" height="265" rx="6" fill="#EDB53B" transform="rotate(-12 442 380)"/><rect x="439" y="80" width="26" height="320" rx="6" fill="#EDB53B" transform="rotate(0 452 380)"/><rect x="447" y="115" width="26" height="285" rx="6" fill="#F7D26A" transform="rotate(-1 460 380)"/><rect x="459" y="89" width="26" height="311" rx="6" fill="#EDB53B" transform="rotate(-8 472 380)"/><rect x="464" y="153" width="26" height="247" rx="6" fill="#F3C24A" transform="rotate(8 477 380)"/><rect x="476" y="86" width="26" height="314" rx="6" fill="#F3C24A" transform="rotate(5 489 380)"/><rect x="482" y="118" width="26" height="282" rx="6" fill="#EDB53B" transform="rotate(-9 495 380)"/><rect x="497" y="157" width="26" height="243" rx="6" fill="#EDB53B" transform="rotate(-13 510 380)"/><rect x="500" y="124" width="26" height="276" rx="6" fill="#F7D26A" transform="rotate(9 513 380)"/><rect x="513" y="158" width="26" height="242" rx="6" fill="#EDB53B" transform="rotate(-4 526 380)"/><rect x="522" y="141" width="26" height="259" rx="6" fill="#F7D26A" transform="rotate(10 535 380)"/><circle cx="480" cy="268" r="3.5" fill="#E4572E" opacity=".8"/><circle cx="309" cy="185" r="3.5" fill="#E4572E" opacity=".8"/><circle cx="368" cy="223" r="3.5" fill="#E4572E" opacity=".8"/><circle cx="419" cy="144" r="3.5" fill="#E4572E" opacity=".8"/><circle cx="398" cy="207" r="3.5" fill="#E4572E" opacity=".8"/><circle cx="351" cy="194" r="3.5" fill="#E4572E" opacity=".8"/><circle cx="274" cy="203" r="3.5" fill="#E4572E" opacity=".8"/><circle cx="292" cy="226" r="3.5" fill="#E4572E" opacity=".8"/><circle cx="356" cy="203" r="3.5" fill="#E4572E" opacity=".8"/><circle cx="455" cy="184" r="3.5" fill="#E4572E" opacity=".8"/><circle cx="319" cy="222" r="3.5" fill="#E4572E" opacity=".8"/><circle cx="376" cy="218" r="3.5" fill="#E4572E" opacity=".8"/><circle cx="376" cy="139" r="3.5" fill="#E4572E" opacity=".8"/><circle cx="300" cy="125" r="3.5" fill="#E4572E" opacity=".8"/><circle cx="298" cy="298" r="3.5" fill="#E4572E" opacity=".8"/><circle cx="356" cy="262" r="3.5" fill="#E4572E" opacity=".8"/><circle cx="346" cy="265" r="3.5" fill="#E4572E" opacity=".8"/><circle cx="290" cy="249" r="3.5" fill="#E4572E" opacity=".8"/><circle cx="521" cy="259" r="3.5" fill="#E4572E" opacity=".8"/><circle cx="397" cy="192" r="3.5" fill="#E4572E" opacity=".8"/><circle cx="288" cy="141" r="3.5" fill="#E4572E" opacity=".8"/><circle cx="419" cy="308" r="3.5" fill="#E4572E" opacity=".8"/><circle cx="479" cy="276" r="3.5" fill="#E4572E" opacity=".8"/><circle cx="372" cy="232" r="3.5" fill="#E4572E" opacity=".8"/><circle cx="373" cy="171" r="3.5" fill="#E4572E" opacity=".8"/><circle cx="494" cy="215" r="3.5" fill="#E4572E" opacity=".8"/><circle cx="521" cy="119" r="3.5" fill="#E4572E" opacity=".8"/><circle cx="382" cy="217" r="3.5" fill="#E4572E" opacity=".8"/><circle cx="497" cy="173" r="3.5" fill="#E4572E" opacity=".8"/><circle cx="489" cy="165" r="3.5" fill="#E4572E" opacity=".8"/><circle cx="525" cy="158" r="3.5" fill="#E4572E" opacity=".8"/><circle cx="286" cy="119" r="3.5" fill="#E4572E" opacity=".8"/><circle cx="400" cy="174" r="3.5" fill="#E4572E" opacity=".8"/><circle cx="394" cy="244" r="3.5" fill="#E4572E" opacity=".8"/><circle cx="376" cy="307" r="3.5" fill="#E4572E" opacity=".8"/><circle cx="388" cy="216" r="3.5" fill="#E4572E" opacity=".8"/><circle cx="403" cy="146" r="3.5" fill="#E4572E" opacity=".8"/><circle cx="436" cy="123" r="3.5" fill="#E4572E" opacity=".8"/><circle cx="431" cy="254" r="3.5" fill="#E4572E" opacity=".8"/><circle cx="329" cy="255" r="3.5" fill="#E4572E" opacity=".8"/><path d="M250 340 H550 L520 520 Q400 540 280 520 Z" fill="#D93A2B"/><path d="M262 340 H538 L536 372 H264 Z" fill="#fff" opacity=".9"/><path d="M330 390 H470 L462 500 H338 Z" fill="#fff" opacity=".18"/></g><g transform="translate(160 214) scale(0.6)"><ellipse cx="400" cy="512" rx="250" ry="24" fill="#000" opacity=".16"/><rect x="210" y="452" width="380" height="54" rx="27" fill="#D9974A"/><rect x="230" y="462" width="340" height="12" rx="6" fill="#fff" opacity=".18"/><rect x="195" y="400" width="410" height="56" rx="28" fill="#D9903B"/><circle cx="225" cy="428" r="4" fill="#fff" opacity=".22"/><circle cx="254" cy="434" r="4" fill="#fff" opacity=".22"/><circle cx="283" cy="440" r="4" fill="#fff" opacity=".22"/><circle cx="312" cy="428" r="4" fill="#fff" opacity=".22"/><circle cx="341" cy="434" r="4" fill="#fff" opacity=".22"/><circle cx="370" cy="440" r="4" fill="#fff" opacity=".22"/><circle cx="399" cy="428" r="4" fill="#fff" opacity=".22"/><circle cx="428" cy="434" r="4" fill="#fff" opacity=".22"/><circle cx="457" cy="440" r="4" fill="#fff" opacity=".22"/><circle cx="486" cy="428" r="4" fill="#fff" opacity=".22"/><circle cx="515" cy="434" r="4" fill="#fff" opacity=".22"/><circle cx="544" cy="440" r="4" fill="#fff" opacity=".22"/><circle cx="573" cy="428" r="4" fill="#fff" opacity=".22"/><rect x="212" y="376" width="376" height="26" rx="13" fill="#D8412F"/><rect x="240" y="382" width="120" height="6" rx="3" fill="#fff" opacity=".25"/><path d="M215 380 q30 20 60 0 t60 0 t60 0 t60 0 t60 0 t60 0 v10 H215Z" fill="#FFF1DE"/><path d="M190 380 q26 -36 52 0 t52 0 t52 0 t52 0 t52 0 t52 0 t52 0 t52 0 v18 H190 Z" fill="#5DB04A"/><path d="M200 388 q26 -26 52 0 t52 0 t52 0 t52 0 t52 0 t52 0 t52 0 v10 H200Z" fill="#7BCB63"/><path d="M205 368 C205 232 595 232 595 368 Z" fill="#E7A34F"/><path d="M240 322 C270 262 360 252 430 262" stroke="#fff" stroke-opacity=".28" stroke-width="12" fill="none" stroke-linecap="round"/><ellipse cx="528" cy="313" rx="10" ry="4.5" fill="#FFF3D9" transform="rotate(62 528 313)"/><ellipse cx="519" cy="312" rx="10" ry="4.5" fill="#FFF3D9" transform="rotate(155 519 312)"/><ellipse cx="525" cy="306" rx="10" ry="4.5" fill="#FFF3D9" transform="rotate(91 525 306)"/><ellipse cx="393" cy="324" rx="10" ry="4.5" fill="#FFF3D9" transform="rotate(95 393 324)"/><ellipse cx="378" cy="296" rx="10" ry="4.5" fill="#FFF3D9" transform="rotate(104 378 296)"/><ellipse cx="374" cy="294" rx="10" ry="4.5" fill="#FFF3D9" transform="rotate(12 374 294)"/><ellipse cx="280" cy="287" rx="10" ry="4.5" fill="#FFF3D9" transform="rotate(141 280 287)"/><ellipse cx="509" cy="271" rx="10" ry="4.5" fill="#FFF3D9" transform="rotate(174 509 271)"/><ellipse cx="279" cy="296" rx="10" ry="4.5" fill="#FFF3D9" transform="rotate(97 279 296)"/><ellipse cx="389" cy="297" rx="10" ry="4.5" fill="#FFF3D9" transform="rotate(34 389 297)"/><ellipse cx="276" cy="280" rx="10" ry="4.5" fill="#FFF3D9" transform="rotate(172 276 280)"/><ellipse cx="339" cy="332" rx="10" ry="4.5" fill="#FFF3D9" transform="rotate(165 339 332)"/><ellipse cx="518" cy="282" rx="10" ry="4.5" fill="#FFF3D9" transform="rotate(58 518 282)"/><ellipse cx="470" cy="321" rx="10" ry="4.5" fill="#FFF3D9" transform="rotate(7 470 321)"/></g><path d="M0 0 H80 V128 A40 40 0 0 1 0 128 Z" fill="#F2A93B"/><path d="M80 0 H160 V128 A40 40 0 0 1 80 128 Z" fill="#FFF4E4"/><path d="M160 0 H240 V128 A40 40 0 0 1 160 128 Z" fill="#F2A93B"/><path d="M240 0 H320 V128 A40 40 0 0 1 240 128 Z" fill="#FFF4E4"/><path d="M320 0 H400 V128 A40 40 0 0 1 320 128 Z" fill="#F2A93B"/><path d="M400 0 H480 V128 A40 40 0 0 1 400 128 Z" fill="#FFF4E4"/><path d="M480 0 H560 V128 A40 40 0 0 1 480 128 Z" fill="#F2A93B"/><path d="M560 0 H640 V128 A40 40 0 0 1 560 128 Z" fill="#FFF4E4"/><path d="M640 0 H720 V128 A40 40 0 0 1 640 128 Z" fill="#F2A93B"/><path d="M720 0 H800 V128 A40 40 0 0 1 720 128 Z" fill="#FFF4E4"/><rect width="800" height="14" fill="#C1801E"/></svg>