<svg xmlns="http://www.w3.org/2000/svg" viewBox="0 0 800 600" width="800" height="600"><defs><linearGradient id="rbu16" x1="0" y1="0" x2="0" y2="1"><stop offset="0" stop-color="#FFF4E4"/><stop offset="1" stop-color="#F7D9B5"/></linearGradient></defs><rect width="800" height="600" fill="url(#rbu16)"/><rect y="470" width="800" height="130" fill="#B98552" opacity=".28"/><g transform="translate(31 242) scale(0.46)"><ellipse cx="400" cy="500" rx="270" ry="36" fill="#000" opacity=".15"/><ellipse cx="400" cy="488" rx="270" ry="34" fill="#fff"/><rect x="250" y="270" width="300" height="200" rx="14" fill="#B0202B"/><rect x="250" y="320" width="300" height="16" fill="#FFF3E2"/><rect x="250" y="380" width="300" height="16" fill="#FFF3E2"/><rect x="250" y="430" width="300" height="16" fill="#FFF3E2"/><rect x="250" y="266" width="300" height="14" fill="#FFF3E2"/><rect x="250" y="270" width="300" height="200" rx="14" fill="none" stroke="#7D1119" stroke-width="3" opacity=".5"/><rect x="262" y="290" width="16" height="150" rx="8" fill="#fff" opacity=".18"/><circle cx="292" cy="255" r="30" fill="#FFF7EA"/><circle cx="292" cy="252" r="18" fill="#F6E6CF"/><circle cx="292" cy="250" r="8" fill="#FFF7EA"/><circle cx="364" cy="255" r="30" fill="#FFF7EA"/><circle cx="364" cy="252" r="18" fill="#F6E6CF"/><circle cx="364" cy="250" r="8" fill="#FFF7EA"/><circle cx="436" cy="255" r="30" fill="#FFF7EA"/><circle cx="436" cy="252" r="18" fill="#F6E6CF"/><circle cx="436" cy="250" r="8" fill="#FFF7EA"/><circle cx="508" cy="255" r="30" fill="#FFF7EA"/><circle cx="508" cy="252" r="18" fill="#F6E6CF"/><circle cx="508" cy="250" r="8" fill="#FFF7EA"/><circle cx="395" cy="319" r="5" fill="#9A1820"/><circle cx="428" cy="190" r="5" fill="#9A1820"/><circle cx="431" cy="270" r="5" fill="#9A1820"/><circle cx="455" cy="287" r="5" fill="#9A1820"/><circle cx="380" cy="297" r="5" fill="#9A1820"/><circle cx="390" cy="220" r="5" fill="#9A1820"/><circle cx="462" cy="310" r="5" fill="#9A1820"/><circle cx="434" cy="134" r="5" fill="#9A1820"/><circle cx="493" cy="197" r="5" fill="#9A1820"/><circle cx="445" cy="166" r="5" fill="#9A1820"/><circle cx="334" cy="200" r="5" fill="#9A1820"/><circle cx="344" cy="254" r="5" fill="#9A1820"/><circle cx="400" cy="205" r="22" fill="#C81E3B"/><circle cx="393" cy="198" r="6" fill="#fff" opacity=".5"/></g><g transform="translate(401 242) scale(0.46)"><circle cx="410" cy="326" r="232" fill="#000" opacity=".13"/><circle cx="400" cy="310" r="232" fill="#FFFFFF"/><circle cx="400" cy="310" r="198" fill="#F7F0E6" stroke="#000" stroke-opacity=".06" stroke-width="3"/><circle cx="420" cy="360" r="150" fill="#3A1E12" opacity=".85"/><g transform="rotate(-8 340 300)"><rect x="200" y="190" width="240" height="220" rx="22" fill="#3E2113"/><rect x="200" y="190" width="240" height="60" rx="22" fill="#5A3320"/><path d="M215 250 q40 28 80 0 t80 0 t50 0 v30 h-210Z" fill="#2A140B"/></g><circle cx="470" cy="270" r="88" fill="#000" opacity=".12" transform="translate(6 8)"/><circle cx="470" cy="270" r="88" fill="#FFF1D2"/><circle cx="446" cy="244" r="28" fill="#fff" opacity=".55"/><path d="M400 250 q30 -20 60 6 t70 -6" stroke="#4A2417" stroke-width="12" fill="none" stroke-linecap="round" opacity=".85"/><circle cx="470" cy="190" r="20" fill="#C81E3B"/><circle cx="464" cy="184" r="6" fill="#fff" opacity=".5"/><circle cx="248" cy="312" r="9" fill="#8A5A3A"/><circle cx="326" cy="307" r="9" fill="#8A5A3A"/><circle cx="308" cy="380" r="9" fill="#8A5A3A"/><circle cx="266" cy="260" r="9" fill="#8A5A3A"/><circle cx="357" cy="347" r="9" fill="#8A5A3A"/><circle cx="338" cy="288" r="9" fill="#8A5A3A"/><circle cx="387" cy="334" r="9" fill="#8A5A3A"/><circle cx="252" cy="347" r="9" fill="#8A5A3A"/><circle cx="400" cy="332" r="9" fill="#8A5A3A"/></g><g transform="translate(160 214) scale(0.6)"><ellipse cx="400" cy="536" rx="170" ry="18" fill="#000" opacity=".16"/><clipPath id="cu17"><path d="M275 160 H525 L494 520 Q400 540 306 520 Z"/></clipPath><path d="M275 160 H525 L494 520 Q400 540 306 520 Z" fill="#fff" opacity=".25"/><g clip-path="url(#cu17)"><rect x="250" y="200" width="300" height="172" fill="#F9C23C"/><rect x="250" y="370" width="300" height="172" fill="#F4A928"/><rect x="326" y="338" width="56" height="56" rx="12" fill="#fff" opacity=".33" transform="rotate(327 354 366)"/><rect x="346" y="325" width="56" height="56" rx="12" fill="#fff" opacity=".33" transform="rotate(270 374 353)"/><rect x="408" y="340" width="56" height="56" rx="12" fill="#fff" opacity=".33" transform="rotate(27 436 368)"/><rect x="315" y="262" width="56" height="56" rx="12" fill="#fff" opacity=".33" transform="rotate(220 343 290)"/><rect x="386" y="403" width="56" height="56" rx="12" fill="#fff" opacity=".33" transform="rotate(314 414 431)"/><rect x="350" y="364" width="56" height="56" rx="12" fill="#fff" opacity=".33" transform="rotate(243 378 392)"/><rect x="457" y="307" width="56" height="56" rx="12" fill="#fff" opacity=".33" transform="rotate(316 485 335)"/></g><path d="M275 160 H525 L494 520 Q400 540 306 520 Z" fill="none" stroke="#fff" stroke-width="7" opacity=".8"/><rect x="305" y="200" width="16" height="270" rx="8" fill="#fff" opacity=".35"/><line x1="445" y1="70" x2="410" y2="450" stroke="#E4572E" stroke-width="16" stroke-linecap="round"/><line x1="445" y1="70" x2="410" y2="450" stroke="#fff" stroke-width="16" stroke-dasharray="14 30" opacity=".55"/><ellipse cx="400" cy="170" rx="140" ry="46" fill="#FFF6EA"/><path d="M300 165 q30 -50 60 -10 t60 -10 t60 10" stroke="#EBD9BF" stroke-width="8" fill="none" stroke-linecap="round"/><circle cx="385" cy="118" r="20" fill="#C81E3B"/><circle cx="379" cy="112" r="6" fill="#fff" opacity=".5"/></g><path d="M0 0 H80 V128 A40 40 0 0 1 0 128 Z" fill="#D6547A"/><path d="M80 0 H160 V128 A40 40 0 0 1 80 128 Z" fill="#FFF4E4"/><path d="M160 0 H240 V128 A40 40 0 0 1 160 128 Z" fill="#D6547A"/><path d="M240 0 H320 V128 A40 40 0 0 1 240 128 Z" fill="#FFF4E4"/><path d="M320 0 H400 V128 A40 40 0 0 1 320 128 Z" fill="#D6547A"/><path d="M400 0 H480 V128 A40 40 0 0 1 400 128 Z" fill="#FFF4E4"/><path d="M480 0 H560 V128 A40 40 0 0 1 480 128 Z" fill="#D6547A"/><path d="M560 0 H640 V128 A40 40 0 0 1 560 128 Z" fill="#FFF4E4"/><path d="M640 0 H720 V128 A40 40 0 0 1 640 128 Z" fill="#D6547A"/><path d="M720 0 H800 V128 A40 40 0 0 1 720 128 Z" fill="#FFF4E4"/><rect width="800" height="14" fill="#A63A5A"/></svg>