<svg xmlns="http://www.w3.org/2000/svg" viewBox="0 0 800 600" width="800" height="600"><defs><linearGradient id="bgu44" x1="0" y1="0" x2="1" y2="1"><stop offset="0" stop-color="#FFE0CC"/><stop offset="1" stop-color="#F2B08C"/></linearGradient></defs><rect width="800" height="600" fill="url(#bgu44)"/><circle cx="110" cy="80" r="170" fill="#fff" opacity=".14"/><circle cx="720" cy="540" r="210" fill="#fff" opacity=".10"/><circle cx="410" cy="326" r="232" fill="#000" opacity=".14"/><circle cx="400" cy="310" r="232" fill="#2F2A27"/><circle cx="400" cy="310" r="205" fill="#3B342F"/><circle cx="400" cy="310" r="182" fill="#8E2B14"/><circle cx="301" cy="374" r="24" fill="#A8371C" opacity=".35"/><circle cx="434" cy="378" r="18" fill="#A8371C" opacity=".35"/><circle cx="411" cy="320" r="23" fill="#A8371C" opacity=".35"/><circle cx="241" cy="296" r="10" fill="#A8371C" opacity=".35"/><circle cx="326" cy="380" r="17" fill="#A8371C" opacity=".35"/><circle cx="380" cy="349" r="23" fill="#A8371C" opacity=".35"/><circle cx="360" cy="274" r="17" fill="#A8371C" opacity=".35"/><circle cx="530" cy="398" r="20" fill="#A8371C" opacity=".35"/><circle cx="289" cy="198" r="20" fill="#A8371C" opacity=".35"/><circle cx="317" cy="383" r="17" fill="#A8371C" opacity=".35"/><circle cx="431" cy="385" r="22" fill="#A8371C" opacity=".35"/><circle cx="525" cy="350" r="10" fill="#A8371C" opacity=".35"/><circle cx="371" cy="322" r="18" fill="#A8371C" opacity=".35"/><circle cx="389" cy="181" r="16" fill="#A8371C" opacity=".35"/><circle cx="462" cy="199" r="12" fill="#A8371C" opacity=".35"/><circle cx="325" cy="291" r="12" fill="#A8371C" opacity=".35"/><circle cx="436" cy="183" r="12" fill="#A8371C" opacity=".35"/><circle cx="462" cy="177" r="10" fill="#A8371C" opacity=".35"/><circle cx="442" cy="373" r="22" fill="#A8371C" opacity=".35"/><circle cx="403" cy="181" r="20" fill="#A8371C" opacity=".35"/><circle cx="496" cy="307" r="19" fill="#A8371C" opacity=".35"/><circle cx="471" cy="370" r="22" fill="#A8371C" opacity=".35"/><circle cx="369" cy="286" r="10" fill="#A8371C" opacity=".35"/><circle cx="521" cy="348" r="16" fill="#A8371C" opacity=".35"/><circle cx="455" cy="426" r="12" fill="#A8371C" opacity=".35"/><circle cx="337" cy="251" r="16" fill="#A8371C" opacity=".35"/><circle cx="398" cy="323" r="24" fill="#A8371C" opacity=".35"/><circle cx="352" cy="193" r="19" fill="#A8371C" opacity=".35"/><circle cx="479" cy="187" r="15" fill="#A8371C" opacity=".35"/><circle cx="480" cy="290" r="9" fill="#A8371C" opacity=".35"/><path d="M250 300 Q330 240 400 310 T550 300" stroke="#A8371C" stroke-width="12" fill="none" opacity=".6" stroke-linecap="round"/><g transform="rotate(40 480 378)"><ellipse cx="480" cy="378" rx="37" ry="28" fill="#C6511F"/><ellipse cx="473" cy="369" rx="18" ry="10" fill="#fff" opacity=".22"/><ellipse cx="492" cy="386" rx="8" ry="5" fill="#000" opacity=".22"/></g><g transform="rotate(85 409 415)"><ellipse cx="409" cy="415" rx="37" ry="28" fill="#C6511F"/><ellipse cx="402" cy="406" rx="18" ry="10" fill="#fff" opacity=".22"/><ellipse cx="421" cy="423" rx="8" ry="5" fill="#000" opacity=".22"/></g><g transform="rotate(130 332 390)"><ellipse cx="332" cy="390" rx="37" ry="28" fill="#C6511F"/><ellipse cx="325" cy="382" rx="18" ry="10" fill="#fff" opacity=".22"/><ellipse cx="344" cy="399" rx="8" ry="5" fill="#000" opacity=".22"/></g><g transform="rotate(175 295 319)"><ellipse cx="295" cy="319" rx="37" ry="28" fill="#C6511F"/><ellipse cx="288" cy="310" rx="18" ry="10" fill="#fff" opacity=".22"/><ellipse cx="307" cy="327" rx="8" ry="5" fill="#000" opacity=".22"/></g><g transform="rotate(220 320 242)"><ellipse cx="320" cy="242" rx="37" ry="28" fill="#C6511F"/><ellipse cx="313" cy="234" rx="18" ry="10" fill="#fff" opacity=".22"/><ellipse cx="332" cy="251" rx="8" ry="5" fill="#000" opacity=".22"/></g><g transform="rotate(265 391 205)"><ellipse cx="391" cy="205" rx="37" ry="28" fill="#C6511F"/><ellipse cx="384" cy="197" rx="18" ry="10" fill="#fff" opacity=".22"/><ellipse cx="403" cy="214" rx="8" ry="5" fill="#000" opacity=".22"/></g><g transform="rotate(310 468 230)"><ellipse cx="468" cy="230" rx="37" ry="28" fill="#C6511F"/><ellipse cx="461" cy="221" rx="18" ry="10" fill="#fff" opacity=".22"/><ellipse cx="480" cy="238" rx="8" ry="5" fill="#000" opacity=".22"/></g><g transform="rotate(355 505 301)"><ellipse cx="505" cy="301" rx="37" ry="28" fill="#C6511F"/><ellipse cx="497" cy="293" rx="18" ry="10" fill="#fff" opacity=".22"/><ellipse cx="517" cy="310" rx="8" ry="5" fill="#000" opacity=".22"/></g><g transform="rotate(20 400 310)"><ellipse cx="400" cy="310" rx="37" ry="28" fill="#C6511F"/><ellipse cx="393" cy="302" rx="18" ry="10" fill="#fff" opacity=".22"/><ellipse cx="412" cy="318" rx="8" ry="5" fill="#000" opacity=".22"/></g><ellipse cx="360" cy="294" rx="20" ry="5" fill="#3E9B3E" transform="rotate(98 360 294)"/><ellipse cx="349" cy="341" rx="20" ry="5" fill="#3E9B3E" transform="rotate(340 349 341)"/><ellipse cx="400" cy="387" rx="20" ry="5" fill="#3E9B3E" transform="rotate(215 400 387)"/><ellipse cx="311" cy="294" rx="20" ry="5" fill="#3E9B3E" transform="rotate(117 311 294)"/><ellipse cx="247" cy="313" rx="20" ry="5" fill="#3E9B3E" transform="rotate(28 247 313)"/><ellipse cx="532" cy="229" rx="20" ry="5" fill="#3E9B3E" transform="rotate(246 532 229)"/><ellipse cx="432" cy="216" rx="20" ry="5" fill="#3E9B3E" transform="rotate(347 432 216)"/><ellipse cx="394" cy="178" rx="20" ry="5" fill="#3E9B3E" transform="rotate(162 394 178)"/><ellipse cx="424" cy="441" rx="20" ry="5" fill="#3E9B3E" transform="rotate(265 424 441)"/><ellipse cx="489" cy="313" rx="20" ry="5" fill="#3E9B3E" transform="rotate(193 489 313)"/><ellipse cx="414" cy="366" rx="20" ry="5" fill="#3E9B3E" transform="rotate(68 414 366)"/><ellipse cx="455" cy="315" rx="20" ry="5" fill="#3E9B3E" transform="rotate(141 455 315)"/><ellipse cx="272" cy="309" rx="20" ry="5" fill="#3E9B3E" transform="rotate(111 272 309)"/><ellipse cx="506" cy="421" rx="20" ry="5" fill="#3E9B3E" transform="rotate(227 506 421)"/><ellipse cx="343" cy="190" rx="20" ry="5" fill="#3E9B3E" transform="rotate(116 343 190)"/><ellipse cx="325" cy="260" rx="20" ry="5" fill="#3E9B3E" transform="rotate(235 325 260)"/><ellipse cx="408" cy="291" rx="15" ry="7" fill="#5DB04A" transform="rotate(286 408 291)"/><ellipse cx="415" cy="324" rx="15" ry="7" fill="#5DB04A" transform="rotate(27 415 324)"/><ellipse cx="263" cy="253" rx="15" ry="7" fill="#5DB04A" transform="rotate(333 263 253)"/><ellipse cx="457" cy="398" rx="15" ry="7" fill="#5DB04A" transform="rotate(339 457 398)"/><ellipse cx="511" cy="216" rx="15" ry="7" fill="#5DB04A" transform="rotate(89 511 216)"/><ellipse cx="390" cy="371" rx="15" ry="7" fill="#5DB04A" transform="rotate(95 390 371)"/><ellipse cx="282" cy="391" rx="15" ry="7" fill="#5DB04A" transform="rotate(238 282 391)"/><ellipse cx="432" cy="370" rx="15" ry="7" fill="#5DB04A" transform="rotate(162 432 370)"/><ellipse cx="485" cy="240" rx="15" ry="7" fill="#5DB04A" transform="rotate(284 485 240)"/><ellipse cx="344" cy="171" rx="15" ry="7" fill="#5DB04A" transform="rotate(179 344 171)"/><ellipse cx="322" cy="385" rx="15" ry="7" fill="#5DB04A" transform="rotate(289 322 385)"/><ellipse cx="387" cy="379" rx="15" ry="7" fill="#5DB04A" transform="rotate(301 387 379)"/><path d="M257 326 q16 -22 32 0" stroke="#D9B0DD" stroke-width="6" fill="none" stroke-linecap="round" transform="rotate(63 273 326)"/><path d="M457 330 q16 -22 32 0" stroke="#D9B0DD" stroke-width="6" fill="none" stroke-linecap="round" transform="rotate(155 473 330)"/><path d="M466 327 q16 -22 32 0" stroke="#D9B0DD" stroke-width="6" fill="none" stroke-linecap="round" transform="rotate(339 482 327)"/><path d="M374 314 q16 -22 32 0" stroke="#D9B0DD" stroke-width="6" fill="none" stroke-linecap="round" transform="rotate(289 390 314)"/><path d="M363 373 q16 -22 32 0" stroke="#D9B0DD" stroke-width="6" fill="none" stroke-linecap="round" transform="rotate(230 379 373)"/><path d="M337 232 q16 -22 32 0" stroke="#D9B0DD" stroke-width="6" fill="none" stroke-linecap="round" transform="rotate(256 353 232)"/><path d="M450 244 q16 -22 32 0" stroke="#D9B0DD" stroke-width="6" fill="none" stroke-linecap="round" transform="rotate(179 466 244)"/><path d="M507 314 q16 -22 32 0" stroke="#D9B0DD" stroke-width="6" fill="none" stroke-linecap="round" transform="rotate(105 523 314)"/><circle cx="400" cy="310" r="205" fill="none" stroke="#fff" stroke-opacity=".10" stroke-width="4"/></svg>