<svg xmlns="http://www.w3.org/2000/svg" viewBox="0 0 800 600" width="800" height="600"><defs><linearGradient id="bgu56" x1="0" y1="0" x2="1" y2="1"><stop offset="0" stop-color="#FFEDCB"/><stop offset="1" stop-color="#F5C878"/></linearGradient></defs><rect width="800" height="600" fill="url(#bgu56)"/><circle cx="110" cy="80" r="170" fill="#fff" opacity=".14"/><circle cx="720" cy="540" r="210" fill="#fff" opacity=".10"/><circle cx="410" cy="326" r="232" fill="#000" opacity=".14"/><circle cx="400" cy="310" r="232" fill="#F2EADF"/><circle cx="400" cy="310" r="205" fill="#FFFFFF"/><circle cx="400" cy="310" r="182" fill="#F0B04B"/><circle cx="344" cy="423" r="10" fill="#F7C56A" opacity=".35"/><circle cx="544" cy="294" r="18" fill="#F7C56A" opacity=".35"/><circle cx="394" cy="381" r="15" fill="#F7C56A" opacity=".35"/><circle cx="409" cy="333" r="18" fill="#F7C56A" opacity=".35"/><circle cx="304" cy="418" r="12" fill="#F7C56A" opacity=".35"/><circle cx="362" cy="363" r="22" fill="#F7C56A" opacity=".35"/><circle cx="527" cy="334" r="19" fill="#F7C56A" opacity=".35"/><circle cx="490" cy="431" r="23" fill="#F7C56A" opacity=".35"/><circle cx="549" cy="257" r="9" fill="#F7C56A" opacity=".35"/><circle cx="400" cy="371" r="17" fill="#F7C56A" opacity=".35"/><circle cx="390" cy="196" r="20" fill="#F7C56A" opacity=".35"/><circle cx="494" cy="320" r="11" fill="#F7C56A" opacity=".35"/><circle cx="472" cy="344" r="17" fill="#F7C56A" opacity=".35"/><circle cx="303" cy="367" r="17" fill="#F7C56A" opacity=".35"/><circle cx="451" cy="240" r="24" fill="#F7C56A" opacity=".35"/><circle cx="376" cy="380" r="17" fill="#F7C56A" opacity=".35"/><circle cx="310" cy="323" r="8" fill="#F7C56A" opacity=".35"/><circle cx="401" cy="184" r="16" fill="#F7C56A" opacity=".35"/><circle cx="357" cy="168" r="20" fill="#F7C56A" opacity=".35"/><circle cx="441" cy="412" r="18" fill="#F7C56A" opacity=".35"/><circle cx="286" cy="307" r="21" fill="#F7C56A" opacity=".35"/><circle cx="406" cy="459" r="16" fill="#F7C56A" opacity=".35"/><circle cx="291" cy="310" r="19" fill="#F7C56A" opacity=".35"/><circle cx="341" cy="266" r="11" fill="#F7C56A" opacity=".35"/><circle cx="381" cy="418" r="22" fill="#F7C56A" opacity=".35"/><circle cx="356" cy="418" r="23" fill="#F7C56A" opacity=".35"/><circle cx="252" cy="323" r="10" fill="#F7C56A" opacity=".35"/><circle cx="500" cy="287" r="16" fill="#F7C56A" opacity=".35"/><circle cx="331" cy="221" r="23" fill="#F7C56A" opacity=".35"/><circle cx="395" cy="328" r="13" fill="#F7C56A" opacity=".35"/><path d="M250 300 Q330 240 400 310 T550 300" stroke="#F7C56A" stroke-width="12" fill="none" opacity=".6" stroke-linecap="round"/><circle cx="493" cy="359" r="46" fill="#6E3418"/><circle cx="480" cy="344" r="15" fill="#fff" opacity=".3"/><circle cx="404" cy="415" r="46" fill="#6E3418"/><circle cx="392" cy="400" r="15" fill="#fff" opacity=".3"/><circle cx="311" cy="366" r="46" fill="#6E3418"/><circle cx="298" cy="352" r="15" fill="#fff" opacity=".3"/><circle cx="307" cy="261" r="46" fill="#6E3418"/><circle cx="294" cy="247" r="15" fill="#fff" opacity=".3"/><circle cx="396" cy="205" r="46" fill="#6E3418"/><circle cx="383" cy="190" r="15" fill="#fff" opacity=".3"/><circle cx="489" cy="254" r="46" fill="#6E3418"/><circle cx="476" cy="239" r="15" fill="#fff" opacity=".3"/><circle cx="400" cy="310" r="46" fill="#6E3418"/><circle cx="387" cy="295" r="15" fill="#fff" opacity=".3"/><ellipse cx="512" cy="239" rx="7" ry="3" fill="#7DAE45" transform="rotate(288 512 239)"/><ellipse cx="337" cy="336" rx="7" ry="3" fill="#7DAE45" transform="rotate(238 337 336)"/><ellipse cx="280" cy="348" rx="7" ry="3" fill="#7DAE45" transform="rotate(46 280 348)"/><ellipse cx="294" cy="262" rx="7" ry="3" fill="#7DAE45" transform="rotate(266 294 262)"/><ellipse cx="411" cy="439" rx="7" ry="3" fill="#7DAE45" transform="rotate(61 411 439)"/><ellipse cx="537" cy="293" rx="7" ry="3" fill="#7DAE45" transform="rotate(130 537 293)"/><ellipse cx="551" cy="320" rx="7" ry="3" fill="#7DAE45" transform="rotate(51 551 320)"/><ellipse cx="389" cy="248" rx="7" ry="3" fill="#7DAE45" transform="rotate(270 389 248)"/><ellipse cx="558" cy="319" rx="7" ry="3" fill="#7DAE45" transform="rotate(181 558 319)"/><ellipse cx="496" cy="327" rx="7" ry="3" fill="#7DAE45" transform="rotate(144 496 327)"/><ellipse cx="298" cy="201" rx="7" ry="3" fill="#7DAE45" transform="rotate(312 298 201)"/><ellipse cx="480" cy="292" rx="7" ry="3" fill="#7DAE45" transform="rotate(336 480 292)"/><ellipse cx="452" cy="178" rx="7" ry="3" fill="#7DAE45" transform="rotate(255 452 178)"/><ellipse cx="345" cy="374" rx="7" ry="3" fill="#7DAE45" transform="rotate(320 345 374)"/><ellipse cx="421" cy="171" rx="7" ry="3" fill="#7DAE45" transform="rotate(313 421 171)"/><ellipse cx="316" cy="291" rx="7" ry="3" fill="#7DAE45" transform="rotate(23 316 291)"/><ellipse cx="461" cy="232" rx="7" ry="3" fill="#7DAE45" transform="rotate(203 461 232)"/><ellipse cx="319" cy="206" rx="7" ry="3" fill="#7DAE45" transform="rotate(211 319 206)"/><ellipse cx="404" cy="273" rx="7" ry="3" fill="#7DAE45" transform="rotate(93 404 273)"/><ellipse cx="368" cy="222" rx="7" ry="3" fill="#7DAE45" transform="rotate(155 368 222)"/><ellipse cx="368" cy="397" rx="7" ry="3" fill="#7DAE45" transform="rotate(214 368 397)"/><ellipse cx="347" cy="247" rx="7" ry="3" fill="#7DAE45" transform="rotate(86 347 247)"/><ellipse cx="329" cy="330" rx="7" ry="3" fill="#7DAE45" transform="rotate(244 329 330)"/><ellipse cx="349" cy="293" rx="7" ry="3" fill="#7DAE45" transform="rotate(105 349 293)"/><ellipse cx="259" cy="363" rx="7" ry="3" fill="#7DAE45" transform="rotate(205 259 363)"/><ellipse cx="480" cy="212" rx="7" ry="3" fill="#7DAE45" transform="rotate(175 480 212)"/><circle cx="400" cy="310" r="205" fill="none" stroke="#fff" stroke-opacity=".10" stroke-width="4"/></svg>