<svg xmlns="http://www.w3.org/2000/svg" viewBox="0 0 800 600" width="800" height="600"><defs><linearGradient id="bgu69" x1="0" y1="0" x2="1" y2="1"><stop offset="0" stop-color="#FFE1CF"/><stop offset="1" stop-color="#F5B08A"/></linearGradient></defs><rect width="800" height="600" fill="url(#bgu69)"/><circle cx="110" cy="80" r="170" fill="#fff" opacity=".14"/><circle cx="720" cy="540" r="210" fill="#fff" opacity=".10"/><circle cx="410" cy="326" r="232" fill="#000" opacity=".14"/><circle cx="400" cy="310" r="232" fill="#2F2A27"/><circle cx="400" cy="310" r="205" fill="#3B342F"/><circle cx="400" cy="310" r="182" fill="#C6461C"/><circle cx="425" cy="406" r="11" fill="#DE6A34" opacity=".35"/><circle cx="305" cy="383" r="11" fill="#DE6A34" opacity=".35"/><circle cx="397" cy="405" r="11" fill="#DE6A34" opacity=".35"/><circle cx="434" cy="230" r="22" fill="#DE6A34" opacity=".35"/><circle cx="413" cy="317" r="22" fill="#DE6A34" opacity=".35"/><circle cx="277" cy="375" r="19" fill="#DE6A34" opacity=".35"/><circle cx="313" cy="303" r="16" fill="#DE6A34" opacity=".35"/><circle cx="321" cy="330" r="14" fill="#DE6A34" opacity=".35"/><circle cx="535" cy="310" r="12" fill="#DE6A34" opacity=".35"/><circle cx="448" cy="427" r="18" fill="#DE6A34" opacity=".35"/><circle cx="307" cy="224" r="13" fill="#DE6A34" opacity=".35"/><circle cx="548" cy="256" r="17" fill="#DE6A34" opacity=".35"/><circle cx="365" cy="357" r="10" fill="#DE6A34" opacity=".35"/><circle cx="472" cy="447" r="10" fill="#DE6A34" opacity=".35"/><circle cx="412" cy="443" r="22" fill="#DE6A34" opacity=".35"/><circle cx="517" cy="394" r="10" fill="#DE6A34" opacity=".35"/><circle cx="247" cy="337" r="17" fill="#DE6A34" opacity=".35"/><circle cx="533" cy="339" r="8" fill="#DE6A34" opacity=".35"/><circle cx="524" cy="313" r="11" fill="#DE6A34" opacity=".35"/><circle cx="359" cy="349" r="13" fill="#DE6A34" opacity=".35"/><circle cx="493" cy="235" r="14" fill="#DE6A34" opacity=".35"/><circle cx="276" cy="277" r="20" fill="#DE6A34" opacity=".35"/><circle cx="425" cy="238" r="12" fill="#DE6A34" opacity=".35"/><circle cx="388" cy="253" r="23" fill="#DE6A34" opacity=".35"/><circle cx="416" cy="219" r="12" fill="#DE6A34" opacity=".35"/><circle cx="477" cy="275" r="18" fill="#DE6A34" opacity=".35"/><circle cx="423" cy="421" r="12" fill="#DE6A34" opacity=".35"/><circle cx="418" cy="252" r="14" fill="#DE6A34" opacity=".35"/><circle cx="345" cy="375" r="22" fill="#DE6A34" opacity=".35"/><circle cx="410" cy="349" r="14" fill="#DE6A34" opacity=".35"/><path d="M250 300 Q330 240 400 310 T550 300" stroke="#F08A50" stroke-width="12" fill="none" opacity=".6" stroke-linecap="round"/><g transform="rotate(19 499 344)"><rect x="473" y="318" width="52" height="52" rx="9" fill="#FBE7B5"/><rect x="481" y="323" width="31" height="11" rx="4" fill="#fff" opacity=".28"/></g><g transform="rotate(79 420 413)"><rect x="394" y="387" width="52" height="52" rx="9" fill="#FBE7B5"/><rect x="402" y="392" width="31" height="11" rx="4" fill="#fff" opacity=".28"/></g><g transform="rotate(139 321 379)"><rect x="295" y="353" width="52" height="52" rx="9" fill="#FBE7B5"/><rect x="302" y="358" width="31" height="11" rx="4" fill="#fff" opacity=".28"/></g><g transform="rotate(199 301 276)"><rect x="275" y="250" width="52" height="52" rx="9" fill="#FBE7B5"/><rect x="282" y="255" width="31" height="11" rx="4" fill="#fff" opacity=".28"/></g><g transform="rotate(259 380 207)"><rect x="354" y="181" width="52" height="52" rx="9" fill="#FBE7B5"/><rect x="361" y="186" width="31" height="11" rx="4" fill="#fff" opacity=".28"/></g><g transform="rotate(319 479 241)"><rect x="453" y="215" width="52" height="52" rx="9" fill="#FBE7B5"/><rect x="460" y="220" width="31" height="11" rx="4" fill="#fff" opacity=".28"/></g><g transform="rotate(20 400 310)"><rect x="374" y="284" width="52" height="52" rx="9" fill="#FBE7B5"/><rect x="381" y="289" width="31" height="11" rx="4" fill="#fff" opacity=".28"/></g><ellipse cx="304" cy="262" rx="20" ry="5" fill="#3E9B3E" transform="rotate(282 304 262)"/><ellipse cx="545" cy="363" rx="20" ry="5" fill="#3E9B3E" transform="rotate(85 545 363)"/><ellipse cx="333" cy="415" rx="20" ry="5" fill="#3E9B3E" transform="rotate(334 333 415)"/><ellipse cx="488" cy="227" rx="20" ry="5" fill="#3E9B3E" transform="rotate(100 488 227)"/><ellipse cx="429" cy="449" rx="20" ry="5" fill="#3E9B3E" transform="rotate(1 429 449)"/><ellipse cx="512" cy="290" rx="20" ry="5" fill="#3E9B3E" transform="rotate(302 512 290)"/><ellipse cx="349" cy="366" rx="20" ry="5" fill="#3E9B3E" transform="rotate(355 349 366)"/><ellipse cx="284" cy="261" rx="20" ry="5" fill="#3E9B3E" transform="rotate(348 284 261)"/><ellipse cx="266" cy="294" rx="20" ry="5" fill="#3E9B3E" transform="rotate(350 266 294)"/><ellipse cx="448" cy="167" rx="20" ry="5" fill="#3E9B3E" transform="rotate(203 448 167)"/><ellipse cx="520" cy="382" rx="15" ry="7" fill="#5DB04A" transform="rotate(21 520 382)"/><ellipse cx="422" cy="258" rx="15" ry="7" fill="#5DB04A" transform="rotate(234 422 258)"/><ellipse cx="413" cy="232" rx="15" ry="7" fill="#5DB04A" transform="rotate(117 413 232)"/><ellipse cx="461" cy="171" rx="15" ry="7" fill="#5DB04A" transform="rotate(185 461 171)"/><ellipse cx="422" cy="331" rx="15" ry="7" fill="#5DB04A" transform="rotate(27 422 331)"/><ellipse cx="329" cy="415" rx="15" ry="7" fill="#5DB04A" transform="rotate(224 329 415)"/><ellipse cx="453" cy="271" rx="15" ry="7" fill="#5DB04A" transform="rotate(136 453 271)"/><ellipse cx="247" cy="296" rx="15" ry="7" fill="#5DB04A" transform="rotate(215 247 296)"/><circle cx="400" cy="310" r="205" fill="none" stroke="#fff" stroke-opacity=".10" stroke-width="4"/><path d="M310 300 q40 -30 80 0 t80 0" stroke="#4CA64A" stroke-width="16" fill="none" opacity=".6"/></svg>