<svg xmlns="http://www.w3.org/2000/svg" viewBox="0 0 800 600" width="800" height="600"><defs><linearGradient id="bgu28" x1="0" y1="0" x2="1" y2="1"><stop offset="0" stop-color="#FFE9C7"/><stop offset="1" stop-color="#F7C58A"/></linearGradient></defs><rect width="800" height="600" fill="url(#bgu28)"/><circle cx="110" cy="80" r="170" fill="#fff" opacity=".14"/><circle cx="720" cy="540" r="210" fill="#fff" opacity=".10"/><circle cx="410" cy="326" r="252" fill="#000" opacity=".16"/><circle cx="400" cy="310" r="252" fill="#B98552"/><circle cx="400" cy="310" r="236" fill="none" stroke="#A4703F" stroke-width="3"/><circle cx="400" cy="310" r="212" fill="#DDA45A"/><circle cx="400" cy="310" r="180" fill="#D1442C"/><circle cx="400" cy="310" r="170" fill="#F5CF6A"/><circle cx="468" cy="424" r="21" fill="#fff" opacity=".07"/><circle cx="474" cy="429" r="8" fill="#C98A1E" opacity=".16"/><circle cx="326" cy="320" r="20" fill="#fff" opacity=".07"/><circle cx="332" cy="325" r="18" fill="#C98A1E" opacity=".16"/><circle cx="441" cy="203" r="21" fill="#fff" opacity=".07"/><circle cx="447" cy="208" r="8" fill="#C98A1E" opacity=".16"/><circle cx="401" cy="319" r="25" fill="#fff" opacity=".07"/><circle cx="407" cy="324" r="11" fill="#C98A1E" opacity=".16"/><circle cx="364" cy="288" r="17" fill="#fff" opacity=".07"/><circle cx="370" cy="293" r="14" fill="#C98A1E" opacity=".16"/><circle cx="409" cy="387" r="14" fill="#fff" opacity=".07"/><circle cx="415" cy="392" r="13" fill="#C98A1E" opacity=".16"/><circle cx="537" cy="308" r="16" fill="#fff" opacity=".07"/><circle cx="543" cy="313" r="10" fill="#C98A1E" opacity=".16"/><circle cx="378" cy="290" r="27" fill="#fff" opacity=".07"/><circle cx="384" cy="295" r="8" fill="#C98A1E" opacity=".16"/><circle cx="346" cy="311" r="20" fill="#fff" opacity=".07"/><circle cx="352" cy="316" r="10" fill="#C98A1E" opacity=".16"/><circle cx="357" cy="356" r="28" fill="#fff" opacity=".07"/><circle cx="363" cy="361" r="15" fill="#C98A1E" opacity=".16"/><circle cx="509" cy="419" r="12" fill="#fff" opacity=".07"/><circle cx="515" cy="424" r="11" fill="#C98A1E" opacity=".16"/><circle cx="311" cy="280" r="23" fill="#fff" opacity=".07"/><circle cx="317" cy="285" r="10" fill="#C98A1E" opacity=".16"/><circle cx="412" cy="338" r="23" fill="#fff" opacity=".07"/><circle cx="418" cy="343" r="17" fill="#C98A1E" opacity=".16"/><circle cx="413" cy="451" r="25" fill="#fff" opacity=".07"/><circle cx="419" cy="456" r="15" fill="#C98A1E" opacity=".16"/><circle cx="548" cy="281" r="30" fill="#fff" opacity=".07"/><circle cx="554" cy="286" r="15" fill="#C98A1E" opacity=".16"/><circle cx="410" cy="188" r="21" fill="#fff" opacity=".07"/><circle cx="416" cy="193" r="10" fill="#C98A1E" opacity=".16"/><circle cx="479" cy="387" r="29" fill="#fff" opacity=".07"/><circle cx="485" cy="392" r="17" fill="#C98A1E" opacity=".16"/><circle cx="447" cy="457" r="20" fill="#fff" opacity=".07"/><circle cx="453" cy="462" r="10" fill="#C98A1E" opacity=".16"/><circle cx="318" cy="362" r="12" fill="#fff" opacity=".07"/><circle cx="324" cy="367" r="14" fill="#C98A1E" opacity=".16"/><circle cx="280" cy="415" r="16" fill="#fff" opacity=".07"/><circle cx="286" cy="420" r="8" fill="#C98A1E" opacity=".16"/><circle cx="448" cy="318" r="20" fill="#fff" opacity=".07"/><circle cx="454" cy="323" r="17" fill="#C98A1E" opacity=".16"/><circle cx="513" cy="305" r="22" fill="#fff" opacity=".07"/><circle cx="519" cy="310" r="18" fill="#C98A1E" opacity=".16"/><circle cx="268" cy="267" r="19" fill="#fff" opacity=".07"/><circle cx="274" cy="272" r="17" fill="#C98A1E" opacity=".16"/><circle cx="308" cy="235" r="25" fill="#fff" opacity=".07"/><circle cx="314" cy="240" r="12" fill="#C98A1E" opacity=".16"/><circle cx="428" cy="370" r="24" fill="#fff" opacity=".07"/><circle cx="434" cy="375" r="10" fill="#C98A1E" opacity=".16"/><circle cx="484" cy="268" r="16" fill="#fff" opacity=".07"/><circle cx="490" cy="273" r="10" fill="#C98A1E" opacity=".16"/><circle cx="382" cy="358" r="15" fill="#fff" opacity=".07"/><circle cx="388" cy="363" r="14" fill="#C98A1E" opacity=".16"/><circle cx="455" cy="180" r="15" fill="#fff" opacity=".07"/><circle cx="461" cy="185" r="10" fill="#C98A1E" opacity=".16"/><circle cx="347" cy="190" r="12" fill="#fff" opacity=".07"/><circle cx="353" cy="195" r="18" fill="#C98A1E" opacity=".16"/><circle cx="499" cy="284" r="26" fill="#fff" opacity=".07"/><circle cx="505" cy="289" r="10" fill="#C98A1E" opacity=".16"/><circle cx="519" cy="280" r="14" fill="#fff" opacity=".07"/><circle cx="525" cy="285" r="9" fill="#C98A1E" opacity=".16"/><circle cx="302" cy="316" r="21" fill="#fff" opacity=".07"/><circle cx="308" cy="321" r="10" fill="#C98A1E" opacity=".16"/><circle cx="446" cy="265" r="21" fill="#fff" opacity=".07"/><circle cx="452" cy="270" r="16" fill="#C98A1E" opacity=".16"/><circle cx="448" cy="178" r="22" fill="#fff" opacity=".07"/><circle cx="454" cy="183" r="14" fill="#C98A1E" opacity=".16"/><ellipse cx="334" cy="313" rx="18" ry="9" fill="#2F8A3E" transform="rotate(60 334 313)"/><ellipse cx="435" cy="389" rx="18" ry="9" fill="#2F8A3E" transform="rotate(256 435 389)"/><ellipse cx="371" cy="301" rx="18" ry="9" fill="#2F8A3E" transform="rotate(256 371 301)"/><ellipse cx="486" cy="222" rx="18" ry="9" fill="#2F8A3E" transform="rotate(285 486 222)"/><ellipse cx="495" cy="315" rx="18" ry="9" fill="#2F8A3E" transform="rotate(23 495 315)"/><ellipse cx="405" cy="252" rx="18" ry="9" fill="#2F8A3E" transform="rotate(256 405 252)"/><ellipse cx="398" cy="427" rx="18" ry="9" fill="#2F8A3E" transform="rotate(113 398 427)"/><ellipse cx="484" cy="333" rx="18" ry="9" fill="#2F8A3E" transform="rotate(111 484 333)"/><ellipse cx="462" cy="266" rx="18" ry="9" fill="#2F8A3E" transform="rotate(181 462 266)"/><ellipse cx="270" cy="268" rx="18" ry="9" fill="#2F8A3E" transform="rotate(35 270 268)"/><circle cx="320" cy="251" r="17" fill="#E24A33" opacity=".92"/><circle cx="316" cy="247" r="6" fill="#F58A6E" opacity=".7"/><circle cx="476" cy="294" r="17" fill="#E24A33" opacity=".92"/><circle cx="472" cy="290" r="6" fill="#F58A6E" opacity=".7"/><circle cx="297" cy="293" r="17" fill="#E24A33" opacity=".92"/><circle cx="293" cy="289" r="6" fill="#F58A6E" opacity=".7"/><circle cx="455" cy="183" r="17" fill="#E24A33" opacity=".92"/><circle cx="451" cy="179" r="6" fill="#F58A6E" opacity=".7"/><circle cx="342" cy="437" r="17" fill="#E24A33" opacity=".92"/><circle cx="338" cy="433" r="6" fill="#F58A6E" opacity=".7"/><circle cx="434" cy="327" r="17" fill="#E24A33" opacity=".92"/><circle cx="430" cy="323" r="6" fill="#F58A6E" opacity=".7"/><line x1="188" y1="310" x2="612" y2="310" stroke="#7A4A20" stroke-opacity=".28" stroke-width="3"/><line x1="250" y1="160" x2="550" y2="460" stroke="#7A4A20" stroke-opacity=".28" stroke-width="3"/><line x1="400" y1="98" x2="400" y2="522" stroke="#7A4A20" stroke-opacity=".28" stroke-width="3"/><line x1="550" y1="160" x2="250" y2="460" stroke="#7A4A20" stroke-opacity=".28" stroke-width="3"/></svg>