<svg xmlns="http://www.w3.org/2000/svg" viewBox="0 0 800 600" width="800" height="600"><defs><linearGradient id="bgu26" x1="0" y1="0" x2="1" y2="1"><stop offset="0" stop-color="#E8F3DA"/><stop offset="1" stop-color="#B9D89A"/></linearGradient></defs><rect width="800" height="600" fill="url(#bgu26)"/><circle cx="110" cy="80" r="170" fill="#fff" opacity=".14"/><circle cx="720" cy="540" r="210" fill="#fff" opacity=".10"/><ellipse cx="400" cy="536" rx="170" ry="18" fill="#000" opacity=".16"/><clipPath id="cu27"><path d="M275 160 H525 L494 520 Q400 540 306 520 Z"/></clipPath><path d="M275 160 H525 L494 520 Q400 540 306 520 Z" fill="#fff" opacity=".25"/><g clip-path="url(#cu27)"><rect x="250" y="178" width="300" height="183" fill="#F6F3E4"/><rect x="250" y="359" width="300" height="183" fill="#EDE6C9"/></g><path d="M275 160 H525 L494 520 Q400 540 306 520 Z" fill="none" stroke="#fff" stroke-width="7" opacity=".8"/><rect x="305" y="200" width="16" height="270" rx="8" fill="#fff" opacity=".35"/><line x1="445" y1="70" x2="410" y2="450" stroke="#3E9B3E" stroke-width="16" stroke-linecap="round"/><line x1="445" y1="70" x2="410" y2="450" stroke="#fff" stroke-width="16" stroke-dasharray="14 30" opacity=".55"/><ellipse cx="350" cy="160" rx="34" ry="14" fill="#3FA34D" transform="rotate(-25 350 160)"/><ellipse cx="392" cy="150" rx="34" ry="14" fill="#56B85F" transform="rotate(15 392 150)"/></svg>