<svg xmlns="http://www.w3.org/2000/svg" viewBox="0 0 800 600" width="800" height="600"><defs><linearGradient id="bgu52" x1="0" y1="0" x2="1" y2="1"><stop offset="0" stop-color="#FFEBC8"/><stop offset="1" stop-color="#F3C079"/></linearGradient></defs><rect width="800" height="600" fill="url(#bgu52)"/><circle cx="110" cy="80" r="170" fill="#fff" opacity=".14"/><circle cx="720" cy="540" r="210" fill="#fff" opacity=".10"/><circle cx="410" cy="326" r="232" fill="#000" opacity=".13"/><circle cx="400" cy="310" r="232" fill="#FFFFFF"/><circle cx="400" cy="310" r="198" fill="#F7F0E6" stroke="#000" stroke-opacity=".06" stroke-width="3"/><circle cx="400" cy="310" r="165" fill="#D9973F"/><circle cx="400" cy="310" r="150" fill="#E7B461"/><circle cx="323" cy="328" r="6" fill="#B87626" opacity=".45"/><circle cx="407" cy="302" r="7" fill="#B87626" opacity=".45"/><circle cx="430" cy="288" r="6" fill="#B87626" opacity=".45"/><circle cx="380" cy="292" r="5" fill="#B87626" opacity=".45"/><circle cx="375" cy="226" r="9" fill="#B87626" opacity=".45"/><circle cx="435" cy="363" r="6" fill="#B87626" opacity=".45"/><circle cx="275" cy="305" r="5" fill="#B87626" opacity=".45"/><circle cx="412" cy="230" r="5" fill="#B87626" opacity=".45"/><circle cx="456" cy="352" r="5" fill="#B87626" opacity=".45"/><circle cx="387" cy="227" r="8" fill="#B87626" opacity=".45"/><circle cx="394" cy="369" r="6" fill="#B87626" opacity=".45"/><circle cx="421" cy="256" r="8" fill="#B87626" opacity=".45"/><circle cx="422" cy="289" r="7" fill="#B87626" opacity=".45"/><circle cx="380" cy="311" r="9" fill="#B87626" opacity=".45"/><circle cx="436" cy="286" r="5" fill="#B87626" opacity=".45"/><circle cx="472" cy="378" r="7" fill="#B87626" opacity=".45"/><circle cx="403" cy="321" r="7" fill="#B87626" opacity=".45"/><circle cx="383" cy="306" r="6" fill="#B87626" opacity=".45"/><circle cx="275" cy="313" r="8" fill="#B87626" opacity=".45"/><circle cx="317" cy="372" r="9" fill="#B87626" opacity=".45"/><circle cx="353" cy="284" r="7" fill="#B87626" opacity=".45"/><circle cx="429" cy="302" r="6" fill="#B87626" opacity=".45"/><circle cx="361" cy="279" r="5" fill="#B87626" opacity=".45"/><circle cx="530" cy="306" r="10" fill="#B87626" opacity=".45"/><circle cx="365" cy="188" r="9" fill="#B87626" opacity=".45"/><circle cx="379" cy="293" r="7" fill="#B87626" opacity=".45"/><circle cx="354" cy="221" r="10" fill="#B87626" opacity=".45"/><circle cx="466" cy="350" r="5" fill="#B87626" opacity=".45"/><circle cx="325" cy="266" r="5" fill="#B87626" opacity=".45"/><circle cx="498" cy="301" r="8" fill="#B87626" opacity=".45"/><circle cx="423" cy="239" r="8" fill="#B87626" opacity=".45"/><circle cx="420" cy="394" r="6" fill="#B87626" opacity=".45"/><circle cx="487" cy="365" r="10" fill="#B87626" opacity=".45"/><circle cx="404" cy="290" r="9" fill="#B87626" opacity=".45"/><circle cx="432" cy="224" r="8" fill="#B87626" opacity=".45"/><circle cx="401" cy="422" r="9" fill="#B87626" opacity=".45"/><circle cx="415" cy="437" r="6" fill="#B87626" opacity=".45"/><circle cx="316" cy="396" r="10" fill="#B87626" opacity=".45"/><circle cx="373" cy="263" r="10" fill="#B87626" opacity=".45"/><circle cx="398" cy="339" r="7" fill="#B87626" opacity=".45"/><path d="M400 194 q16 -22 32 0" stroke="#C48BD0" stroke-width="6" fill="none" stroke-linecap="round" transform="rotate(178 416 194)"/><path d="M406 326 q16 -22 32 0" stroke="#C48BD0" stroke-width="6" fill="none" stroke-linecap="round" transform="rotate(190 422 326)"/><path d="M430 398 q16 -22 32 0" stroke="#C48BD0" stroke-width="6" fill="none" stroke-linecap="round" transform="rotate(30 446 398)"/><path d="M395 252 q16 -22 32 0" stroke="#C48BD0" stroke-width="6" fill="none" stroke-linecap="round" transform="rotate(5 411 252)"/><path d="M422 385 q16 -22 32 0" stroke="#C48BD0" stroke-width="6" fill="none" stroke-linecap="round" transform="rotate(201 438 385)"/><path d="M344 344 q16 -22 32 0" stroke="#C48BD0" stroke-width="6" fill="none" stroke-linecap="round" transform="rotate(174 360 344)"/><path d="M470 280 q16 -22 32 0" stroke="#C48BD0" stroke-width="6" fill="none" stroke-linecap="round" transform="rotate(339 486 280)"/><path d="M507 332 q16 -22 32 0" stroke="#C48BD0" stroke-width="6" fill="none" stroke-linecap="round" transform="rotate(320 523 332)"/><path d="M297 285 q16 -22 32 0" stroke="#C48BD0" stroke-width="6" fill="none" stroke-linecap="round" transform="rotate(193 313 285)"/><path d="M411 293 q16 -22 32 0" stroke="#C48BD0" stroke-width="6" fill="none" stroke-linecap="round" transform="rotate(231 427 293)"/><path d="M318 292 q16 -22 32 0" stroke="#C48BD0" stroke-width="6" fill="none" stroke-linecap="round" transform="rotate(261 334 292)"/><path d="M377 271 q16 -22 32 0" stroke="#C48BD0" stroke-width="6" fill="none" stroke-linecap="round" transform="rotate(252 393 271)"/><path d="M300 335 q16 -22 32 0" stroke="#C48BD0" stroke-width="6" fill="none" stroke-linecap="round" transform="rotate(229 316 335)"/><path d="M476 342 q16 -22 32 0" stroke="#C48BD0" stroke-width="6" fill="none" stroke-linecap="round" transform="rotate(134 492 342)"/><path d="M427 269 q16 -22 32 0" stroke="#C48BD0" stroke-width="6" fill="none" stroke-linecap="round" transform="rotate(296 443 269)"/><path d="M371 212 q16 -22 32 0" stroke="#C48BD0" stroke-width="6" fill="none" stroke-linecap="round" transform="rotate(315 387 212)"/><circle cx="494" cy="332" r="6" fill="#D63A28"/><circle cx="365" cy="238" r="6" fill="#D63A28"/><circle cx="436" cy="400" r="6" fill="#D63A28"/><circle cx="468" cy="340" r="6" fill="#D63A28"/><circle cx="380" cy="306" r="6" fill="#D63A28"/><circle cx="344" cy="406" r="6" fill="#D63A28"/><circle cx="492" cy="283" r="6" fill="#D63A28"/><circle cx="514" cy="300" r="6" fill="#D63A28"/><circle cx="365" cy="359" r="6" fill="#D63A28"/><circle cx="421" cy="365" r="6" fill="#D63A28"/><circle cx="488" cy="393" r="6" fill="#D63A28"/><circle cx="325" cy="387" r="6" fill="#D63A28"/><circle cx="325" cy="300" r="6" fill="#D63A28"/><circle cx="405" cy="373" r="6" fill="#D63A28"/><ellipse cx="427" cy="388" rx="15" ry="7" fill="#3E9B3E" transform="rotate(340 427 388)"/><ellipse cx="440" cy="316" rx="15" ry="7" fill="#3E9B3E" transform="rotate(288 440 316)"/><ellipse cx="459" cy="332" rx="15" ry="7" fill="#3E9B3E" transform="rotate(307 459 332)"/><ellipse cx="354" cy="274" rx="15" ry="7" fill="#3E9B3E" transform="rotate(21 354 274)"/><ellipse cx="389" cy="378" rx="15" ry="7" fill="#3E9B3E" transform="rotate(288 389 378)"/><ellipse cx="510" cy="293" rx="15" ry="7" fill="#3E9B3E" transform="rotate(325 510 293)"/><ellipse cx="506" cy="261" rx="15" ry="7" fill="#3E9B3E" transform="rotate(331 506 261)"/><ellipse cx="438" cy="302" rx="15" ry="7" fill="#3E9B3E" transform="rotate(114 438 302)"/><ellipse cx="402" cy="407" rx="15" ry="7" fill="#3E9B3E" transform="rotate(177 402 407)"/><ellipse cx="335" cy="404" rx="15" ry="7" fill="#3E9B3E" transform="rotate(144 335 404)"/><ellipse cx="417" cy="374" rx="15" ry="7" fill="#3E9B3E" transform="rotate(166 417 374)"/><ellipse cx="328" cy="250" rx="15" ry="7" fill="#3E9B3E" transform="rotate(158 328 250)"/><ellipse cx="431" cy="383" rx="15" ry="7" fill="#3E9B3E" transform="rotate(117 431 383)"/><ellipse cx="444" cy="391" rx="15" ry="7" fill="#3E9B3E" transform="rotate(68 444 391)"/><ellipse cx="376" cy="211" rx="15" ry="7" fill="#3E9B3E" transform="rotate(50 376 211)"/><ellipse cx="349" cy="259" rx="15" ry="7" fill="#3E9B3E" transform="rotate(161 349 259)"/><ellipse cx="314" cy="242" rx="15" ry="7" fill="#3E9B3E" transform="rotate(318 314 242)"/><ellipse cx="394" cy="253" rx="15" ry="7" fill="#3E9B3E" transform="rotate(195 394 253)"/><ellipse cx="391" cy="325" rx="15" ry="7" fill="#3E9B3E" transform="rotate(199 391 325)"/><ellipse cx="286" cy="331" rx="15" ry="7" fill="#3E9B3E" transform="rotate(117 286 331)"/></svg>